<svg id="Component_73_2" data-name="Component 73 2" xmlns="http://www.w3.org/2000/svg" xmlns:xlink="http://www.w3.org/1999/xlink" width="200" height="75" viewBox="0 0 200 75">
  <defs>
    <filter id="com" x="8.5" y="10.5" width="71" height="52" filterUnits="userSpaceOnUse">
      <feOffset dy="3" input="SourceAlpha"/>
      <feGaussianBlur stdDeviation="1.5" result="blur"/>
      <feFlood flood-opacity="0.161"/>
      <feComposite operator="in" in2="blur"/>
      <feComposite in="SourceGraphic"/>
    </filter>
    <filter id="ponents" x="69.5" y="10.5" width="125" height="52" filterUnits="userSpaceOnUse">
      <feOffset dy="3" input="SourceAlpha"/>
      <feGaussianBlur stdDeviation="1.5" result="blur-2"/>
      <feFlood flood-opacity="0.161"/>
      <feComposite operator="in" in2="blur-2"/>
      <feComposite in="SourceGraphic"/>
    </filter>
  </defs>
  <path id="Rectangle_120" data-name="Rectangle 120" d="M0,0H124.5A37.5,37.5,0,0,1,162,37.5v0A37.5,37.5,0,0,1,124.5,75H0a0,0,0,0,1,0,0V0A0,0,0,0,1,0,0Z" transform="translate(38)" fill="#ffc34f"/>
  <circle id="Ellipse_40" data-name="Ellipse 40" cx="37.5" cy="37.5" r="37.5" fill="teal"/>
  <g transform="matrix(1, 0, 0, 1, 0, 0)" filter="url(#com)">
    <text id="com-2" data-name="com" transform="translate(44 47)" fill="#ffc34f" font-size="32" font-family="SegoeUI, Segoe UI"><tspan x="-30.547" y="0">com</tspan></text>
  </g>
  <g transform="matrix(1, 0, 0, 1, 0, 0)" filter="url(#ponents)">
    <text id="ponents-2" data-name="ponents" transform="translate(132 47)" fill="teal" font-size="32" font-family="SegoeUI, Segoe UI"><tspan x="-57.469" y="0">ponents</tspan></text>
  </g>
</svg>
