<?xml version="1.0" encoding="UTF-8" standalone="no"?>
<svg
   xmlns:osb="http://www.openswatchbook.org/uri/2009/osb"
   xmlns:dc="http://purl.org/dc/elements/1.1/"
   xmlns:cc="http://creativecommons.org/ns#"
   xmlns:rdf="http://www.w3.org/1999/02/22-rdf-syntax-ns#"
   xmlns:svg="http://www.w3.org/2000/svg"
   xmlns="http://www.w3.org/2000/svg"
   xmlns:sodipodi="http://sodipodi.sourceforge.net/DTD/sodipodi-0.dtd"
   xmlns:inkscape="http://www.inkscape.org/namespaces/inkscape"
   width="143.81879mm"
   height="47.133244mm"
   viewBox="0 0 143.81878 47.133244"
   version="1.1"
   id="svg8"
   inkscape:version="1.0.1 (3bc2e813f5, 2020-09-07)"
   sodipodi:docname="components.svg">
  <defs
     id="defs2">
    <linearGradient
       id="linearGradient2886"
       osb:paint="solid">
      <stop
         style="stop-color:#000080;stop-opacity:1;"
         offset="0"
         id="stop2884" />
    </linearGradient>
    <linearGradient
       id="linearGradient2829"
       osb:paint="solid">
      <stop
         style="stop-color:#000080;stop-opacity:1;"
         offset="0"
         id="stop2827" />
    </linearGradient>
  </defs>
  <sodipodi:namedview
     id="base"
     pagecolor="#ffffff"
     bordercolor="#666666"
     borderopacity="1.0"
     inkscape:pageopacity="0.0"
     inkscape:pageshadow="2"
     inkscape:zoom="0.49497475"
     inkscape:cx="378.38985"
     inkscape:cy="62.174647"
     inkscape:document-units="mm"
     inkscape:current-layer="g2856"
     inkscape:document-rotation="0"
     showgrid="false"
     inkscape:window-width="1366"
     inkscape:window-height="745"
     inkscape:window-x="-8"
     inkscape:window-y="-8"
     inkscape:window-maximized="1"
     width="100mm"
     fit-margin-top="0"
     fit-margin-left="0"
     fit-margin-right="0"
     fit-margin-bottom="0"
     inkscape:pagecheckerboard="false"
     showborder="true" />
  <metadata
     id="metadata5">
    <rdf:RDF>
      <cc:Work
         rdf:about="">
        <dc:format>image/svg+xml</dc:format>
        <dc:type
           rdf:resource="http://purl.org/dc/dcmitype/StillImage" />
        <dc:title></dc:title>
      </cc:Work>
    </rdf:RDF>
  </metadata>
  <g
     inkscape:label="Layer 1"
     inkscape:groupmode="layer"
     id="layer1"
     transform="translate(-5.5281164,-83.137177)">
    <circle
       id="path2915"
       style="fill:#000080;stroke:#ff8184;stroke-width:0.264583"
       cx="114.39135"
       cy="151.27455"
       r="0.014128868" />
    <g
       id="g2856"
       transform="matrix(0.47809936,0.50807332,-0.60090161,0.40424177,159.59289,-21.873843)"
       style="fill:#000080;fill-opacity:1;fill-rule:nonzero">
      <g
         id="g840"
         transform="matrix(0.88338995,0.14656194,0.14656194,0.81579289,-15.049515,63.874115)">
        <path
           style="fill:#000080;fill-opacity:1;fill-rule:nonzero;stroke:#ff8184;stroke-width:0.255254;stroke-opacity:0"
           id="path2850"
           d="m 2.9116738,235.3612 c -1.1592451,5.15263 -1.1331954,10.49426 -0.3863297,15.56351 0.1975263,1.34068 0.5083832,2.6531 0.7625748,3.97965 1.4400604,4.77118 3.5406371,9.41408 7.9625261,11.8904 2.269562,1.27101 3.298656,1.22626 5.806065,1.63084 0.999271,-0.15723 2.015784,-0.19184 2.997811,-0.47163 3.990848,-1.13691 7.232232,-4.40705 9.744999,-7.67912 0.643187,-0.83754 1.208311,-1.73145 1.812467,-2.59717 2.59255,-4.39856 4.620729,-9.19439 5.535045,-14.15503 0.136456,-0.74034 0.203281,-1.48695 0.304918,-2.23043 0.32128,-3.67241 -0.435271,-6.34071 -2.468282,-9.15477 -1.114168,-1.25534 -2.447732,-2.65153 -4.162942,-3.0616 -0.29197,-0.0698 -0.600505,-0.0716 -0.900757,-0.10735 -2.561192,-0.008 -3.193158,1.32646 -3.839548,3.64692 -0.533203,3.81073 0.762552,7.26501 2.398505,10.45455 1.340605,2.22428 3.261826,4.27334 5.955455,4.72942 0.450587,0.0763 0.920317,0.045 1.380477,0.0674 0.437315,-0.0866 0.887285,-0.10841 1.311939,-0.25965 2.86929,-1.02168 4.286135,-3.72348 5.465662,-6.33933 1.607796,-3.72286 1.974679,-7.62774 2.017468,-11.52885 -0.0047,-2.79303 -0.449374,-5.47577 -1.307078,-8.05492 -0.502366,-1.61525 -1.204791,-3.13009 -1.966733,-4.61411 -0.09441,-0.20008 -1.267969,-2.00703 -1.468854,-1.8824 -0.443881,0.27541 -0.813064,0.6656 -1.219596,0.99839 0.113707,0.1901 0.210238,0.39273 0.341121,0.57032 0.784505,1.06446 1.723289,2.03746 2.573616,3.04374 0.763852,0.90393 1.51473,1.8194 2.272492,2.72876 0.81866,0.99979 1.679491,1.96337 2.484962,2.97479 0.08027,0.1008 0.139959,0.4168 0.230058,0.31124 1.311488,-1.53656 1.010564,-1.38607 0.328589,-2.57054 -1.072029,-2.07934 -1.923486,-4.31763 -2.30015,-6.68857 -0.232787,-1.46532 -0.245979,-2.72911 -0.310873,-4.21906 0.04494,-1.83548 0.21257,-3.68144 0.803998,-5.47006 0.248045,-0.75014 0.433155,-1.44373 1.157683,-1.86898 0.214957,-0.12617 0.475314,-0.11217 0.712973,-0.16829 3.33256,1.23941 5.584296,4.15564 7.773917,6.81604 0.301732,0.40485 0.611554,0.80332 0.905188,1.21455 0.425336,0.59567 0.607818,0.90971 0.974692,1.4755 0.04366,0.0674 0.07122,0.25835 0.134093,0.19972 1.507249,-1.40532 1.252674,-1.06291 0.606224,-2.42028 -1.012531,-2.28977 -2.129908,-4.56731 -2.777392,-7.02552 -0.385222,-1.46253 -0.490516,-2.62696 -0.688497,-4.13372 -0.02433,-1.86779 -0.477234,-5.81443 1.028489,-7.38529 0.154486,-0.16116 0.369201,-0.24538 0.553801,-0.36807 0.221561,2.6e-4 0.450625,-0.0431 0.664668,9.9e-4 2.728771,0.562 4.864147,2.80697 6.680065,4.71411 1.983884,1.95329 3.224446,4.5114 4.964554,6.66217 0.335104,0.11589 0.643571,0.4071 1.005309,0.34768 1.416983,-0.23269 1.601627,-1.42092 1.89667,-2.59966 0.715393,-2.8581 0.437474,-5.86549 0.361152,-8.71045 -0.465764,-5.52713 -1.276552,-11.05219 -3.138306,-16.18117 -0.256248,-1.53398 -2.801722,-3.52712 -2.322191,0.0536 0.09998,0.74653 2.008071,3.66359 2.148113,3.89218 4.683918,6.83859 10.156847,13.05242 15.539935,19.30255 2.349529,2.82271 4.827998,5.52648 7.276245,8.25776 1.067511,1.19092 2.171292,2.36705 3.109742,3.67104 0.123302,-0.42229 0.431973,-0.84497 0.369915,-1.26686 -0.04564,-0.31046 -0.4213,-0.43764 -0.649884,-0.63662 -0.501787,-0.43678 -1.049819,-0.8191 -1.539741,-1.26936 -2.464358,-2.26485 -4.684037,-4.80671 -6.915761,-7.30188 -5.08744,-5.74099 -9.502301,-12.03577 -13.339193,-18.73727 -1.828868,-3.80163 -4.177637,-7.7559 -4.104776,-12.26926 0.0094,-0.58314 0.122573,-1.1678 0.183863,-1.7517 0.451741,-1.61958 1.215287,-3.4508 2.978851,-4.02087 0.889656,-0.28757 1.442633,-0.0807 2.305879,0.058 3.337878,1.64549 4.817792,4.72614 5.583508,8.37322 0.184916,0.88076 0.244641,1.79317 0.366961,2.68975 0.15293,3.53866 0.02524,7.30994 -1.426778,10.71966 -0.07922,0.11816 -0.373234,0.35568 -0.237652,0.35447 1.393108,-0.0123 1.225116,-0.79374 1.395705,-1.78561 0.08005,-0.4655 0.682212,-3.33044 0.752162,-3.66591 0.587965,-2.93155 1.437803,-5.82527 1.810863,-8.78396 0.202278,-1.60425 0.228352,-2.74146 0.306647,-4.33727 0.02827,-4.00483 -0.296811,-7.98421 -0.890127,-11.89398 -0.204814,-1.19394 -0.17882,-1.15622 -0.419787,-2.20349 -0.03221,-0.13996 0.03519,-0.44826 -0.107363,-0.4164 -0.509739,0.11388 -1.084962,0.32277 -1.407646,0.75499 -0.174904,0.23426 0.16483,0.52859 0.254132,0.79005 0.177806,0.5206 0.364756,1.03732 0.547136,1.55598 1.252754,3.29973 2.497094,6.79209 4.874421,9.39953 0.402691,0.44167 0.881809,0.8044 1.322716,1.20661 0.436776,0.27236 0.832666,0.61902 1.310327,0.81705 1.405471,0.58271 3.099324,0.5018 4.484505,-0.38293 1.155241,-0.73784 1.634725,-1.54497 2.460405,-2.6075 1.555967,-2.85344 2.372643,-6.05392 1.901537,-9.17636 -0.09378,-0.6216 -0.274283,-1.22002 -0.411421,-1.83003 -1.221214,-3.61759 -3.244008,-6.80366 -5.622802,-9.67354 -1.241621,-1.19538 -2.458136,-2.70191 -4.162083,-3.27807 -0.265672,-0.0899 -0.550986,-0.12121 -0.826479,-0.18182 -2.756623,0.14623 -3.621269,2.1469 -4.43957,4.54914 -1.006614,4.03962 -0.872963,7.84412 -0.132079,11.77114 0.844962,2.86223 2.430636,5.36896 4.864562,7.01649 0.405992,0.27481 0.84992,0.49119 1.274882,0.73679 2.486772,1.04357 5.288624,0.71368 7.762016,-0.73143 0.539697,-0.31534 1.028154,-0.72031 1.542225,-1.08047 2.815188,-2.38418 4.390948,-5.69682 4.990798,-9.23836 0.13139,-0.7757 0.16206,-1.55794 0.24308,-2.33692 0.21992,-4.42246 -0.85588,-8.63006 -2.16068,-12.68977 -0.14519,-0.31779 -1.41658,-4.61991 -2.755913,-2.32575 -0.296597,0.50804 0.764963,2.50813 0.917303,2.83626 1.3504,3.15093 3.06745,6.08879 4.63495,9.11423 0.0776,0.17427 0.0686,0.63997 0.23288,0.5228 1.37082,-0.97795 0.4436,-1.55346 -0.11902,-2.25752 -0.27331,-0.34201 -0.55132,-0.68118 -0.798,-1.04437 -0.29921,-0.44056 -0.55857,-0.90946 -0.83785,-1.36418 -1.70307,-3.32128 -2.47492,-7.21408 -2.46046,-11.07341 0.003,-0.69643 0.0864,-1.39637 0.12964,-2.09455 0.28367,-1.68306 0.58031,-4.32668 2.06749,-5.55752 0.50943,-0.42161 1.06576,-0.33141 1.63179,-0.3475 3.20665,1.29536 4.54008,4.7474 5.79079,7.79166 0.55558,1.38478 0.88582,2.87492 1.41552,4.26963 0.10822,0.28496 0.58547,1.45973 0.99391,1.60505 0.42097,0.14977 0.91084,0.0221 1.36627,0.0332 0.38472,-0.33547 0.84387,-0.59935 1.15419,-1.00638 0.66674,-0.87448 1.47871,-2.96091 1.79925,-3.91641 0.91494,-2.72731 1.32808,-5.46882 1.72513,-8.27146 0.72144,-5.3839 0.0167,-10.61745 -1.10603,-15.73497 -0.55931,-1.71266 -0.85832,-4.38475 -2.69424,-5.22229 -0.26016,-0.11869 -0.56133,-0.13382 -0.84199,-0.20073 -0.36779,0.11443 -0.76703,0.14356 -1.10341,0.34328 -2.10835,1.25173 -2.37187,5.01775 -2.31906,7.03205 0.0262,1.00267 0.18607,1.98685 0.27911,2.98027 0.60703,3.86068 1.66162,7.67891 3.6102,10.98228 0.36555,0.61971 0.73569,1.24482 1.2052,1.78339 0.40947,0.46972 0.94129,0.81255 1.41194,1.21882 0.51575,0.18813 0.98958,0.53247 1.54726,0.5644 3.06719,0.1756 5.15111,-3.4095 6.20121,-5.86625 0.34155,-0.79909 0.57157,-1.63549 0.85736,-2.45326 1.31726,-4.30208 1.27237,-8.68747 0.72568,-12.96798 -0.11868,-0.98252 -0.35625,-1.93269 -0.55671,-2.89304 -0.10693,-0.51228 -1.00403,0.62875 -1.18246,1.14248 -0.13542,0.38993 0.28827,0.73003 0.4324,1.09506 1.23437,3.03132 2.2663,6.14698 3.20518,9.30281 1.24191,-1.75833 -0.0795,1.29092 0.14026,1.01176 0.16846,-0.21403 0.27352,-0.46999 0.40913,-0.70563 0.0955,-0.16592 0.33122,-0.3231 0.28412,-0.49902 -0.15061,-0.56259 -0.55577,-1.00327 -0.82242,-1.51171 -0.35009,-0.66751 -0.6851,-1.3439 -1.02765,-2.01586 -1.12479,-2.33316 -2.17199,-4.71401 -2.96579,-7.20757 -0.2568,-0.8067 -0.53312,-1.61051 -0.69305,-2.44947 -0.39399,-2.06682 -0.306,-3.5452 -0.32003,-5.671734 0.11657,-2.77971 0.59205,-5.543554 1.43521,-8.245567 0.3486,-1.11713 0.90042,-2.655903 1.54348,-3.697065 0.23869,-0.38645 0.56966,-0.709024 0.85449,-1.063533 0.26482,-0.150076 0.50048,-0.424032 0.79448,-0.450227 0.4448,-0.03961 1.53414,1.136968 1.58998,1.207633 1.69849,2.149206 2.73725,4.782336 3.82063,7.30431 1.57572,3.617784 2.67635,7.496163 4.64209,10.908983 0.35453,0.61555 0.703,1.2449 1.16519,1.77737 0.39698,0.45734 0.92576,0.77656 1.38865,1.16483 0.60859,0.0405 1.22582,0.30375 1.82576,0.12163 1.9503,-0.59204 2.62983,-2.42367 3.27329,-4.1606 1.52358,-4.11264 1.7428,-8.564756 2.13067,-12.803393 0.54132,-7.920559 -0.35652,-15.712485 -2.2027,-23.225531 -0.34132,-1.389023 -0.76345,-2.750474 -1.14517,-4.125709 -1.41117,-4.61057 -3.18226,-9.130745 -5.88791,-13.041178 -0.53717,-0.730654 -2.03126,-3.37545 -3.3146,-1.648221 -0.28564,0.384452 -0.17724,0.924197 -0.26587,1.386292 0.0444,0.51945 0.0532,1.046015 0.13319,1.558347 0.44542,2.854889 1.37398,5.632176 2.21102,8.35331 1.24639,4.051844 1.16325,3.695133 2.58591,7.829276 2.3175,6.411656 4.93128,12.744486 8.74301,18.308351 1.90819,1.812599 3.88019,2.619159 6.36434,0.635279 1.30456,-1.041848 2.15469,-2.42961 3.11004,-3.763353 2.29919,-3.943774 4.01138,-8.292481 4.59618,-12.754553 0.10701,-0.81618 0.12466,-1.63506 0.18699,-2.452589 0.11907,-3.546282 -0.65566,-6.922397 -2.35096,-9.873432 -1.09223,-1.613734 -2.48509,-2.908326 -4.11973,-3.93193 -1.72908,-0.880795 -2.74017,-0.793805 -4.06647,0.899798 -0.92951,1.552524 -1.03537,2.974596 0.53513,3.982862 0.3513,0.225537 0.75582,0.360492 1.13372,0.540735 2.94868,0.810959 5.89303,1.588711 8.65581,2.863974 1.63285,0.926619 3.6503,2.114768 4.70967,3.727765 0.74219,1.130057 0.76358,1.817784 1.06206,3.158667 -0.0452,0.763529 -0.0147,1.529781 -0.13569,2.290592 -0.36577,2.301107 -1.11452,4.280207 -2.08416,6.447865 -2.0348,4.548874 -4.87233,8.515012 -7.75479,12.575833 -5.31535,6.96107 -11.10374,13.537813 -16.71093,20.259553 -4.34081,5.20366 -4.29035,5.18897 -8.50131,10.42714 -5.78213,7.20737 -11.37896,14.5583 -16.5969,22.17994 -2.02144,2.94803 -3.81183,6.03121 -5.36024,9.23621 -0.57193,1.18373 -0.91848,2.48504 -1.65864,3.58902 -0.37846,0.50858 -0.59578,1.09631 -0.84915,1.6659 -0.45915,1.03411 0.93265,1.5855 1.39179,0.5514 v 0 c 0.21651,-0.48842 0.39163,-0.99397 0.72027,-1.42806 0.75071,-1.18518 1.20564,-2.50389 1.76457,-3.77728 1.50854,-3.12805 3.25872,-6.13427 5.22982,-9.01115 5.19239,-7.58522 10.76342,-14.89986 16.51733,-22.07278 4.19709,-5.22116 4.14795,-5.20803 8.47647,-10.39695 5.63782,-6.75846 11.45855,-13.370682 16.79875,-20.3731 2.96142,-4.17697 5.87908,-8.263256 7.95551,-12.948171 1.0107,-2.280379 1.85415,-4.530104 2.19571,-6.970082 0.12655,-0.903777 0.0643,-1.810138 0.0975,-2.715245 -0.42646,-1.751677 -0.40042,-2.320483 -1.39322,-3.795266 -1.16035,-1.723687 -3.38028,-3.068511 -5.15602,-4.0548 -2.76702,-1.266646 -5.69452,-2.098088 -8.65991,-2.865856 -1.33633,-0.570429 -2.02898,-0.612305 -1.18396,-2.207429 0.13978,-0.206981 0.23214,-0.460831 0.42659,-0.616103 0.48078,-0.383902 1.16453,-0.01868 1.56945,0.185571 1.44903,0.894193 2.67196,2.039563 3.65284,3.449228 1.56786,2.677549 2.24734,5.780264 2.15788,9.006059 -0.0548,0.758883 -0.0668,1.518918 -0.16423,2.276641 -0.54315,4.220617 -2.15441,8.337131 -4.30773,12.077853 -0.94693,1.339344 -2.78059,4.410031 -4.7482,4.284786 -0.9232,-0.05877 -1.56893,-0.753177 -2.22499,-1.263156 -3.74816,-5.451252 -6.28729,-11.681087 -8.57003,-17.963986 -1.41708,-4.11632 -1.32474,-3.733743 -2.56762,-7.772375 -0.81042,-2.633389 -1.68984,-5.306939 -2.1542,-8.059632 -0.0713,-0.422587 -0.0877,-0.856971 -0.13162,-1.285459 -0.1719,-0.64789 0.0274,-0.461523 -0.79484,-0.50053 -0.0495,-0.0024 0.10397,0.0017 0.14419,0.02847 0.61579,0.408507 0.97354,1.127331 1.42344,1.689188 2.62389,3.771532 4.31043,8.158078 5.68448,12.605793 0.37486,1.347454 0.78944,2.68133 1.12457,4.042364 1.81233,7.360345 2.70173,14.99229 2.17454,22.75342 -0.30379,3.346569 -0.40301,5.500581 -1.07556,8.81005 -0.27694,1.362777 -1.16281,5.673247 -2.71971,6.617887 -0.26688,0.16193 -0.59692,0.1258 -0.89538,0.18869 -0.36747,-0.28294 -0.7957,-0.49957 -1.10243,-0.84883 -0.43201,-0.49196 -0.75818,-1.07508 -1.08852,-1.64604 -1.95578,-3.38026 -3.02774,-7.238139 -4.60025,-10.820245 -0.99482,-2.306317 -1.44662,-3.587126 -2.72281,-5.687709 -0.99633,-1.639937 -2.44225,-4.024196 -4.84725,-3.413484 -0.46881,0.119049 -0.81557,0.560767 -1.22336,0.841149 -0.34817,0.455527 -0.74724,0.877199 -1.04452,1.366583 -0.68216,1.122948 -1.28443,2.792764 -1.65792,3.999773 -0.88102,2.847188 -1.37689,5.758441 -1.49276,8.685544 0.0225,2.392239 -0.0722,3.746819 0.37746,6.076989 0.16777,0.86958 0.45457,1.703 0.72166,2.53933 0.81544,2.55331 1.88741,4.99246 3.04065,7.38187 0.48882,0.95828 1.95899,4.58728 3.28369,4.71846 0.35564,0.0352 0.60767,-0.48654 0.78153,-0.82095 0.16793,-0.32295 -0.14839,-1.31779 -0.20079,-1.53264 -0.95111,-3.19682 -1.99727,-6.35271 -3.24696,-9.4237 -0.59499,-1.50415 -0.14494,-1.3504 -2.2029,-1.32741 -0.0693,7.1e-4 0.008,0.14058 0.0202,0.20898 0.0901,0.49441 0.22372,0.97665 0.31656,1.47033 0.081,0.43021 0.14572,0.86455 0.21857,1.29683 0.52343,4.03482 0.57943,8.17316 -0.64712,12.23292 -0.73056,2.13171 -1.4131,4.09656 -2.94077,5.84388 -0.48189,0.55116 -1.28345,1.37253 -2.09926,1.40338 -0.3862,0.0146 -0.72806,-0.20723 -1.09208,-0.31085 -0.38536,-0.31175 -0.8273,-0.56284 -1.15605,-0.93524 -0.43796,-0.49612 -0.78223,-1.0745 -1.1234,-1.6469 -1.86615,-3.13111 -2.85936,-6.76978 -3.44841,-10.43471 -0.24492,-2.46592 -0.69397,-5.37593 0.58994,-7.7938 0.10031,-0.18881 0.46646,-0.55612 0.65561,-0.75192 1.61955,0.0149 2.01339,3.20186 2.40519,4.33119 1.08507,4.93713 1.7803,9.98358 1.0863,15.1796 -0.56014,3.98318 -1.1522,8.24756 -3.42144,11.78506 0.0173,0.12209 0.17246,0.33145 0.0521,0.36626 -0.18839,0.0545 -0.52388,-0.64513 -0.68372,-1.06767 -0.54249,-1.4342 -0.88271,-2.96469 -1.45775,-4.38605 -1.19936,-2.90819 -2.68048,-6.66805 -5.61782,-8.12654 -0.50862,-0.25256 -1.08735,-0.35049 -1.63103,-0.52573 -1.26531,0.18005 -1.72685,0.0479 -2.78332,1.00434 -1.70132,1.54016 -2.094656,4.43298 -2.414465,6.47984 -0.04356,0.75553 -0.129529,1.51305 -0.130584,2.2666 -0.0056,4.1146 0.840349,8.2492 2.676149,11.77901 0.74913,1.20829 1.50747,2.49663 2.5352,3.4854 0.252,0.24245 0.47444,0.72302 0.8309,0.63938 0.49177,-0.11542 0.88116,-0.63087 1.11312,-1.09555 0.10326,-0.20695 -0.17897,-0.39767 -0.26845,-0.59651 -1.55913,-3.00725 -3.2659,-5.92795 -4.60845,-9.06037 -0.50938,-1.08753 -0.64832,-1.96906 -2.158606,-1.4625 -0.125629,0.0422 0.172099,0.18549 0.23824,0.29351 0.455656,0.74428 0.548046,1.11444 0.898516,1.99962 1.24229,3.85981 2.28466,7.85756 2.09638,12.06192 -0.0689,0.70738 -0.0907,1.41754 -0.20681,2.12213 -0.51605,3.13091 -1.83857,6.09867 -4.31297,8.23617 -0.428315,0.30993 -0.833179,0.65954 -1.284945,0.92978 -2.014162,1.20488 -4.312038,1.58462 -6.377925,0.76442 -2.880452,-1.62843 -4.431377,-3.52206 -5.458397,-6.78416 -0.699044,-3.64993 -0.831949,-7.20077 0.07327,-10.96201 0.471443,-1.43448 0.921583,-3.08902 2.592721,-3.41462 1.771789,0.26817 2.977132,1.82712 4.181521,2.98439 2.243238,2.69405 4.146062,5.69007 5.329418,9.07551 0.297811,1.27372 0.521931,1.89468 0.527246,3.2309 0.0088,2.21041 -0.673566,4.41035 -1.70482,6.41269 -1.264684,1.68515 -2.663134,3.40178 -4.896167,2.53548 -0.404103,-0.15678 -0.739143,-0.44431 -1.108715,-0.66646 -0.383735,-0.34036 -0.803211,-0.64319 -1.151203,-1.02107 -2.289186,-2.48578 -3.45602,-5.84992 -4.660869,-9.00419 -0.178147,-0.50608 -0.360885,-1.01022 -0.534441,-1.51826 -0.08937,-0.26161 0.0113,-0.72329 -0.254289,-0.79053 -0.493615,-0.12501 -1.060225,0.10385 -1.542743,0.33547 -0.115827,0.0556 0.06586,0.2389 0.09389,0.35995 0.231294,0.99849 0.202687,0.94683 0.402183,2.10829 0.580943,3.80706 0.893721,7.68343 0.874436,11.58281 -0.07243,1.49668 -0.100682,2.6592 -0.288167,4.16013 -0.366451,2.93344 -1.218732,5.80136 -1.79691,8.70823 -0.101417,0.48645 -0.681784,3.23892 -0.774235,3.79879 -0.07414,0.449 -0.382994,2.33014 0.06889,2.70479 0.331491,0.27486 0.909072,0.0999 1.33298,-0.0684 0.216119,-0.0858 0.246333,-0.40504 0.3695,-0.60756 1.532354,-3.70087 1.753225,-7.73451 1.541933,-11.57181 -0.137279,-0.96688 -0.20736,-1.95114 -0.411837,-2.90066 -0.71573,-3.32357 -2.135251,-6.64146 -4.985745,-8.49731 -0.54951,-0.35776 -1.175827,-0.58796 -1.763742,-0.88195 -1.386049,-0.15388 -1.90392,-0.38809 -3.303545,0.15174 -2.24359,0.86544 -3.275593,3.17641 -3.819378,5.3227 -0.06272,0.67124 -0.183128,1.34393 -0.188149,2.01371 -0.03555,4.74475 2.338246,8.91148 4.295163,12.90747 3.888331,6.78501 8.356642,13.16202 13.510407,18.97478 2.279133,2.54718 4.54649,5.13994 7.067334,7.44734 0.129424,0.11846 2.643814,2.3007 3.13332,2.22377 0.50961,-0.0801 0.64406,-0.85542 0.96609,-1.28312 -0.976948,-1.34142 -2.101357,-2.55732 -3.204985,-3.78854 -2.440652,-2.72281 -4.911648,-5.41797 -7.253641,-8.23217 -5.334863,-6.19391 -10.758319,-12.35175 -15.408398,-19.12249 -0.443041,-0.71764 -0.915005,-1.41625 -1.329124,-2.15291 -0.251637,-0.44762 -0.28115,-1.06323 -0.665698,-1.39558 -0.19749,-0.17068 -0.540967,0.15264 -0.805936,0.12367 -0.218446,-0.0238 -0.369058,-0.3388 -0.58642,-0.2757 -0.507133,0.14723 2.57272,1.21097 0.796592,1.2931 1.818782,4.97211 2.578587,10.34567 3.048292,15.70371 0.05652,2.04791 0.175647,4.13254 0.01144,6.19942 -0.05358,0.67447 -0.202285,1.34496 -0.308882,2.01698 -0.05806,0.36596 -0.123369,0.73125 -0.18505,1.09686 0.04325,0.0981 0.137972,0.1834 0.129774,0.29423 -0.0052,0.0704 -0.108118,0.096 -0.162177,0.14391 -1.774095,-2.16795 -3.004796,-4.78651 -5.037774,-6.74519 -1.837821,-1.91633 -5.029495,-5.0772 -7.942416,-5.12554 -0.476529,-0.008 -0.945981,0.22082 -1.418972,0.33123 -0.317856,0.27068 -0.6859,0.48998 -0.953568,0.81205 -1.760952,2.11885 -1.340625,6.05573 -1.274292,8.47591 0.22459,1.68659 0.315765,2.76394 0.751115,4.40777 0.666412,2.51629 1.80697,4.85002 2.84524,7.19463 0.63877,1.3406 0.216623,1.34683 2.074228,0.70663 0.06916,-0.0239 -0.07892,-0.11498 -0.116907,-0.17354 -0.125167,-0.19301 -0.245542,-0.38946 -0.37251,-0.58118 -0.796342,-1.20249 -0.637113,-0.94713 -1.605297,-2.24342 -1.905942,-2.31389 -4.733067,-5.87196 -7.592605,-6.9216 -0.571998,-0.20997 -1.2148,-0.20011 -1.822201,-0.30016 -0.45549,0.2042 -0.962772,0.30868 -1.366472,0.61261 -2.108912,1.58764 -2.296928,6.28026 -2.409319,8.54458 0.07362,1.6393 0.08282,2.86526 0.345225,4.48166 0.408747,2.5178 1.315237,4.89514 2.459863,7.10239 0.658308,1.14224 0.457598,1.53221 2.262352,0.70492 0.146105,-0.0669 -0.177885,-0.24667 -0.272393,-0.3654 -0.807108,-1.01404 -1.670375,-1.9796 -2.490823,-2.98188 -1.619838,-1.94388 -3.231326,-3.90188 -4.905174,-5.79436 -0.427613,0.25369 -0.886651,0.45597 -1.282837,0.76107 -0.1114,0.0857 0.218659,0.14671 0.308693,0.24167 0.332325,0.35057 0.521129,0.81107 0.80498,1.19939 0.728639,1.41883 1.403076,2.86544 1.881368,4.411 0.810131,2.41829 1.221779,4.93498 1.229746,7.55561 -0.03732,3.67709 -0.360783,7.3584 -1.871587,10.8712 -1.079958,2.43552 -2.400676,5.06733 -5.220937,5.59267 -0.344576,-0.004 -0.695793,0.0354 -1.033728,-0.0138 -2.319122,-0.33603 -3.947465,-2.14497 -5.097138,-4.02758 -1.476452,-2.8461 -2.675841,-5.93377 -2.291464,-9.34201 0.387496,-1.49191 0.421226,-2.36383 2.099699,-2.39703 1.720445,0.11011 3.006432,1.38247 4.066902,2.60457 1.823801,2.47184 2.476337,4.81754 2.20476,8.06659 -0.09318,0.69648 -0.153116,1.39588 -0.279532,2.08946 -0.865319,4.74754 -2.805648,9.33885 -5.269832,13.55536 -2.679233,3.8577 -5.843851,8.13427 -10.467106,9.57253 -0.821331,0.25552 -1.67615,0.31145 -2.514227,0.46716 -2.229384,-0.33195 -3.171804,-0.28654 -5.198333,-1.38244 -4.140071,-2.23883 -6.0461408,-6.60157 -7.4053738,-11.00403 -0.2480784,-1.28392 -0.5504936,-2.55423 -0.7438054,-3.8519 -0.7239124,-4.85953 -0.7598118,-9.98138 0.3242915,-14.92624 0.3256679,-1.07641 -1.1394627,-1.43059 -1.4651306,-0.35418 z" />
        <path
           style="fill:#000080;fill-opacity:1;fill-rule:nonzero;stroke:#ff8184;stroke-width:0.264583;stroke-opacity:0"
           id="path2852"
           d="m 122.95539,84.908511 c 3.64405,-5.289246 7.31735,-10.55914 11.05277,-15.785574 4.68812,-6.493234 9.67037,-12.768844 14.82298,-18.898047 2.22779,-2.709709 4.4541,-5.417068 6.96943,-7.866194 0.2108,-0.178644 0.4216,-0.357286 0.6324,-0.53593 0.86348,-0.734983 -0.17595,-1.956125 -1.03942,-1.221139 v 0 c -0.23731,0.202785 -0.47462,0.405569 -0.71193,0.608354 -2.55243,2.487279 -4.81852,5.230317 -7.078,7.983024 -5.17933,6.161558 -10.1878,12.469942 -14.90012,18.997485 -3.72275,5.208844 -7.38654,10.459011 -11.01392,15.733495 -0.69617,0.89507 0.56965,1.879595 1.26581,0.984526 z" />
      </g>
    </g>
  </g>
</svg>
